<svg xmlns="http://www.w3.org/2000/svg" xmlns:xlink="http://www.w3.org/1999/xlink" version="1.1" id="Layer_1" x="0px" y="0px" width="100px" height="100px" viewBox="0 0 100 100" enable-background="new 0 0 100 100" xml:space="preserve">
<g>
	<path d="M75.236,65.808c-1.148-0.723-3.768-2.136-6.602-3.626L49.98,77.432L31.34,62.195c-2.825,1.484-5.431,2.893-6.576,3.612   c-5.787,3.645-8.473,10.049-8.473,18.854c0,8.807,0,10.339,0,10.339h67.417c0,0,0-1.532,0-10.339   C83.709,75.856,81.023,69.452,75.236,65.808z"/>
	<path d="M49.98,63.396c16.012,0,28.993-12.981,28.993-28.993c0-16.011-12.98-28.993-28.993-28.993   c-16.012,0-28.994,12.981-28.994,28.993C20.986,50.415,33.968,63.396,49.98,63.396z M40.526,22.62l28.869,11.783   c0,10.723-8.693,19.415-19.415,19.415c-10.722,0-19.414-8.692-19.414-19.415L40.526,22.62z"/>
</g>
</svg>