<?xml version="1.0" encoding="UTF-8" standalone="no"?>
<svg
   xmlns:osb="http://www.openswatchbook.org/uri/2009/osb"
   xmlns:dc="http://purl.org/dc/elements/1.1/"
   xmlns:cc="http://creativecommons.org/ns#"
   xmlns:rdf="http://www.w3.org/1999/02/22-rdf-syntax-ns#"
   xmlns:svg="http://www.w3.org/2000/svg"
   xmlns="http://www.w3.org/2000/svg"
   xmlns:sodipodi="http://sodipodi.sourceforge.net/DTD/sodipodi-0.dtd"
   xmlns:inkscape="http://www.inkscape.org/namespaces/inkscape"
   version="1.1"
   width="16"
   height="16"
   data-icon="map-marker"
   data-container-transform="translate(3)"
   viewBox="0.8 -1.6 16.0 21.6"
   id="svg2"
   inkscape:version="0.48.5 r10040"
   sodipodi:docname="park.svg"
   inkscape:export-filename="D:\PROJECT\BandungPOI\www\img\park.png"
   inkscape:export-xdpi="806.99976"
   inkscape:export-ydpi="806.99976">
  <metadata
     id="metadata14">
    <rdf:RDF>
      <cc:Work
         rdf:about="">
        <dc:format>image/svg+xml</dc:format>
        <dc:type
           rdf:resource="http://purl.org/dc/dcmitype/StillImage" />
        <dc:title></dc:title>
      </cc:Work>
    </rdf:RDF>
  </metadata>
  <defs
     id="defs12">
    <linearGradient
       id="linearGradient5284">
      <stop
         style="stop-color:#0cafe9;stop-opacity:1;"
         offset="0"
         id="stop5286" />
      <stop
         id="stop5302"
         offset="1"
         style="stop-color:#07d5dc;stop-opacity:1;" />
    </linearGradient>
    <linearGradient
       id="linearGradient5278"
       osb:paint="solid">
      <stop
         style="stop-color:#07d5dc;stop-opacity:1;"
         offset="0"
         id="stop5280" />
    </linearGradient>
    <linearGradient
       id="linearGradient3770">
      <stop
         style="stop-color:#000000;stop-opacity:1;"
         offset="0"
         id="stop3772" />
      <stop
         style="stop-color:#000000;stop-opacity:0;"
         offset="1"
         id="stop3774" />
    </linearGradient>
  </defs>
  <sodipodi:namedview
     pagecolor="#ffffff"
     bordercolor="#666666"
     borderopacity="1"
     objecttolerance="10"
     gridtolerance="10"
     guidetolerance="10"
     inkscape:pageopacity="0"
     inkscape:pageshadow="2"
     inkscape:window-width="1366"
     inkscape:window-height="705"
     id="namedview10"
     showgrid="false"
     inkscape:zoom="20.85965"
     inkscape:cx="-5.7656761"
     inkscape:cy="2.079842"
     inkscape:window-x="-8"
     inkscape:window-y="-8"
     inkscape:window-maximized="1"
     inkscape:current-layer="svg2" />
  <path
     d="m 8.3392946,0.91525424 c -3.1624222,0 -5.6471825,2.29788626 -5.6471825,5.22246896 0,3.9690768 5.6471825,11.4894318 5.6471825,11.4894318 0,0 5.6471824,-7.520355 5.6471824,-11.4894318 0,-2.9245827 -2.48476,-5.22246896 -5.6471824,-5.22246896 z m 0,3.13348136 c 1.2423802,0 -2.1999316,-1.0878898 -2.6385025,3.1029547 -0.1196774,1.1436001 4.100168,-0.7501204 2.8577879,-0.7501204 -1.2423802,0 -2.4781585,0.8850965 -2.4781585,-0.2638467 0,-1.1489432 1.0164929,-2.0889876 2.2588731,-2.0889876 z"
     id="path4"
     style="fill:#2dae73;fill-opacity:1"
     inkscape:connector-curvature="0"
     sodipodi:nodetypes="sscsssssss" />
  <g
     id="g3017"
     transform="matrix(1.35,0,0,1.35,-89.769495,-80.109551)">
    <g
       id="g2997">
      <g
         id="g2999">
        <path
           id="path3001"
           d="M 10,90 H 50 V 10 H 10 V 90 z M 44,82.003 H 34 v -10 h 10 v 10 z M 44,64 H 34 V 54 H 44 V 64 z M 16.001,26.002 h 10 v -10 h 8 v 10 h 10 v 8 H 34 v 10 h -8 v -10 H 16 v -8 z m 0,27.998 h 10 v 10 h -10 V 54 z m 0,18.003 h 10 v 10 h -10 v -10 z"
           inkscape:connector-curvature="0"
           style="fill:#000000" />
        <path
           id="path3003"
           d="m 56.001,90 h 10 V 70 h 14 v 20 h 10 V 46.002 h -34 V 90 z"
           inkscape:connector-curvature="0"
           style="fill:#000000" />
        <path
           id="path3005"
           d="M 56.001,36.002 V 40 h 34 v -3.999 h -34 z"
           inkscape:connector-curvature="0"
           style="fill:#000000" />
      </g>
    </g>
    <text
       id="text3007"
       font-weight="bold"
       font-size="5px"
       y="115"
       x="0"
       style="font-size:5px;font-weight:bold;fill:#000000;font-family:'\'Helvetica Neue\', Helvetica, Arial-Unicode, Arial, Sans-serif'">Created by Alexey Ivanov</text>
    <text
       id="text3009"
       font-weight="bold"
       font-size="5px"
       y="120"
       x="0"
       style="font-size:5px;font-weight:bold;fill:#000000;font-family:'\'Helvetica Neue\', Helvetica, Arial-Unicode, Arial, Sans-serif'">from the Noun Project</text>
  </g>
</svg>
