<?xml version="1.0" encoding="UTF-8" standalone="no"?>
<svg
   xmlns:dc="http://purl.org/dc/elements/1.1/"
   xmlns:cc="http://creativecommons.org/ns#"
   xmlns:rdf="http://www.w3.org/1999/02/22-rdf-syntax-ns#"
   xmlns:svg="http://www.w3.org/2000/svg"
   xmlns="http://www.w3.org/2000/svg"
   xmlns:sodipodi="http://sodipodi.sourceforge.net/DTD/sodipodi-0.dtd"
   xmlns:inkscape="http://www.inkscape.org/namespaces/inkscape"
   version="1.1"
   id="Your_Icon"
   x="0px"
   y="0px"
   width="99.999px"
   height="100px"
   viewBox="5.05995 -9.428 99.999 135.0"
   enable-background="new 0.06 0.572 99.999 100"
   xml:space="preserve"
   inkscape:version="0.48.5 r10040"
   sodipodi:docname="logo.svg"><metadata
   id="metadata13"><rdf:RDF><cc:Work
       rdf:about=""><dc:format>image/svg+xml</dc:format><dc:type
         rdf:resource="http://purl.org/dc/dcmitype/StillImage" /></cc:Work></rdf:RDF></metadata><defs
   id="defs11"><linearGradient
     id="linearGradient5300"><stop
       id="stop5302"
       offset="0"
       style="stop-color:#fe770e;stop-opacity:1;" /><stop
       id="stop5304"
       offset="1"
       style="stop-color:#fe823c;stop-opacity:0;" /></linearGradient><linearGradient
     id="linearGradient5276"><stop
       style="stop-color:#ff8b0e;stop-opacity:1;"
       offset="0"
       id="stop5278" /><stop
       style="stop-color:#feb63c;stop-opacity:0;"
       offset="1"
       id="stop5280" /></linearGradient><linearGradient
     id="linearGradient5244"><stop
       style="stop-color:#248ded;stop-opacity:1;"
       offset="0"
       id="stop5246" /><stop
       style="stop-color:#31b7d8;stop-opacity:0;"
       offset="1"
       id="stop5248" /></linearGradient></defs><sodipodi:namedview
   pagecolor="#ffffff"
   bordercolor="#666666"
   borderopacity="1"
   objecttolerance="10"
   gridtolerance="10"
   guidetolerance="10"
   inkscape:pageopacity="0"
   inkscape:pageshadow="2"
   inkscape:window-width="1366"
   inkscape:window-height="705"
   id="namedview9"
   showgrid="false"
   inkscape:zoom="4.72"
   inkscape:cx="-29.918181"
   inkscape:cy="46.022665"
   inkscape:window-x="-8"
   inkscape:window-y="-8"
   inkscape:window-maximized="1"
   inkscape:current-layer="Your_Icon" />
<path
   d="M82.419,63.63H59.091l12.248-25.31l2.022-4.183c0.243-0.652,0.462-1.316,0.651-1.992c0.595-2.13,0.936-4.366,0.936-6.687  c0-13.744-11.145-24.887-24.89-24.887c-13.745,0-24.889,11.143-24.889,24.887c0,2.32,0.342,4.556,0.937,6.687  c0.188,0.676,0.407,1.34,0.65,1.992l2.023,4.182L41.024,63.63H17.698L0.06,100.571h99.999L82.419,63.63z M50.059,16.554  c4.917,0,8.907,3.988,8.907,8.904c0,4.92-3.989,8.905-8.907,8.905c-4.918,0-8.905-3.987-8.905-8.905  C41.154,20.542,45.141,16.554,50.059,16.554z M35.931,72.762c4.186,0.569,6.644,3.49,9.655,7.117  c4.785,5.761,10.74,12.933,26.629,12.933c9.717,0,15.667-1.765,17.726-5.24l4.523,9.471H35.931V72.762z M84,75.129  c-6.188,0.015-13.086-0.042-16.472-3.42c-1.164-1.164-1.813-2.676-2.016-4.553h14.685L84,75.129z M50.059,82.298l7.327-15.141h6.368  c0.226,2.355,1.047,4.32,2.529,5.802c3.732,3.725,10.585,3.935,16.893,3.935c0.411,0,0.818,0,1.223,0l0.445-0.002l4.061,8.504  c-0.057,0.311-0.14,0.62-0.28,0.921c-0.993,2.16-4.646,4.732-16.407,4.732c-15.06,0-20.486-6.532-25.271-12.297  c-3.065-3.688-5.999-7.156-11.012-7.749v-3.845h6.801L50.059,82.298z M19.922,67.157h14.246v3.729  c-7.7,0.061-11.178,2.683-13.973,4.802c-1.84,1.393-3.354,2.528-5.692,2.822L19.922,67.157z M13.63,80.334  c3.448-0.1,5.488-1.621,7.629-3.24c2.718-2.06,5.812-4.381,12.909-4.438v24.387H5.653L13.63,80.334z"
   id="path3"
   style="fill:#ffffff;fill-opacity:1;opacity:1" />
</svg>